<svg xmlns="http://www.w3.org/2000/svg" xmlns:xlink="http://www.w3.org/1999/xlink" width="400" zoomAndPan="magnify" viewBox="0 0 300 74.999997" height="100" preserveAspectRatio="xMidYMid meet" version="1.0"><defs><g/><clipPath id="93d629916a"><rect x="0" width="272" y="0" height="73"/></clipPath></defs><g transform="matrix(1, 0, 0, 1, 16, 2)"><g clip-path="url(#93d629916a)"><g fill="#fb4d0e" fill-opacity="1"><g transform="translate(0.622277, 63.640584)"><g><path d="M 37.703125 -27.015625 L 37.703125 -26.34375 C 39.585938 -26.34375 41.28125 -25.894531 42.78125 -25 C 44.289062 -24.113281 45.488281 -22.914062 46.375 -21.40625 C 47.269531 -19.90625 47.71875 -18.210938 47.71875 -16.328125 L 47.71875 -12.03125 C 47.71875 -9.851562 47.113281 -7.847656 45.90625 -6.015625 C 44.695312 -4.179688 43.085938 -2.71875 41.078125 -1.625 C 39.078125 -0.539062 36.835938 0 34.359375 0 L 1.34375 0 L 1.34375 -1.640625 L 6.6875 -1.640625 L 6.6875 -51.734375 L 1.34375 -51.734375 L 1.34375 -53.4375 L 34.359375 -53.4375 C 36.734375 -53.4375 38.910156 -52.890625 40.890625 -51.796875 C 42.867188 -50.710938 44.441406 -49.265625 45.609375 -47.453125 C 46.773438 -45.648438 47.359375 -43.640625 47.359375 -41.421875 L 47.359375 -37.03125 C 47.359375 -35.207031 46.921875 -33.539062 46.046875 -32.03125 C 45.179688 -30.519531 44.019531 -29.304688 42.5625 -28.390625 C 41.101562 -27.472656 39.484375 -27.015625 37.703125 -27.015625 Z M 34.359375 -9.65625 L 34.359375 -21.671875 L 20.046875 -21.671875 L 20.046875 -9.65625 Z M 34.359375 -31.6875 L 34.359375 -43.71875 L 20.046875 -43.71875 L 20.046875 -31.6875 Z M 34.359375 -31.6875 "/></g></g></g><g fill="#fb4d0e" fill-opacity="1"><g transform="translate(51.675148, 63.640584)"><g><path d="M 23.375 0 L 0.671875 0 L 0.671875 -1.640625 L 5.34375 -1.640625 L 5.34375 -45.046875 L 0.671875 -45.046875 L 0.671875 -46.765625 L 18.703125 -46.765625 L 18.703125 -1.640625 L 23.375 -1.640625 Z M 18.703125 -50.09375 L 5.34375 -50.09375 L 5.34375 -59.75 L 18.703125 -59.75 Z M 18.703125 -50.09375 "/></g></g></g><g fill="#fb4d0e" fill-opacity="1"><g transform="translate(75.717479, 63.640584)"><g><path d="M 4.96875 -30.0625 L 3.34375 -30.0625 L 3.34375 -46.765625 L 41.71875 -46.765625 L 41.71875 -40.375 L 21.375 -9.65625 L 40.078125 -11.359375 L 40.078125 -16.703125 L 41.71875 -16.703125 L 41.71875 0 L 3.34375 0 L 3.34375 -6.3125 L 23.671875 -37.03125 L 4.96875 -35.40625 Z M 4.96875 -30.0625 "/></g></g></g><g fill="#fb4d0e" fill-opacity="1"><g transform="translate(120.759767, 63.640584)"><g><path d="M 48.09375 0 L 32.0625 0 L 31.390625 -2.296875 L 18.03125 0 L 16.703125 0 C 14.273438 0 12.046875 -0.601562 10.015625 -1.8125 C 7.992188 -3.03125 6.375 -4.648438 5.15625 -6.671875 C 3.945312 -8.703125 3.34375 -10.929688 3.34375 -13.359375 L 3.34375 -33.40625 C 3.34375 -35.820312 3.945312 -38.046875 5.15625 -40.078125 C 6.375 -42.109375 7.992188 -43.726562 10.015625 -44.9375 C 12.046875 -46.15625 14.273438 -46.765625 16.703125 -46.765625 L 18.03125 -46.765625 L 30.0625 -45.046875 L 30.0625 -55.078125 L 25.390625 -55.078125 L 25.390625 -56.78125 L 43.421875 -56.78125 L 43.421875 -1.640625 L 48.09375 -1.640625 Z M 30.0625 -11.359375 L 30.0625 -35.40625 L 16.703125 -37.03125 L 16.703125 -9.65625 Z M 30.0625 -11.359375 "/></g></g></g><g fill="#fb4d0e" fill-opacity="1"><g transform="translate(170.180126, 63.640584)"><g><path d="M 43.421875 -33.40625 L 43.421875 -18.328125 C 43.421875 -17.835938 43.257812 -17.441406 42.9375 -17.140625 C 42.613281 -16.847656 42.207031 -16.703125 41.71875 -16.703125 L 16.703125 -18.328125 L 16.703125 -9.65625 L 40.078125 -11.359375 L 40.078125 0 L 16.703125 0 C 14.273438 0 12.046875 -0.601562 10.015625 -1.8125 C 7.992188 -3.03125 6.375 -4.648438 5.15625 -6.671875 C 3.945312 -8.703125 3.34375 -10.929688 3.34375 -13.359375 L 3.34375 -33.40625 C 3.34375 -35.820312 3.945312 -38.046875 5.15625 -40.078125 C 6.375 -42.109375 7.992188 -43.726562 10.015625 -44.9375 C 12.046875 -46.15625 14.273438 -46.765625 16.703125 -46.765625 L 30.0625 -46.765625 C 32.488281 -46.765625 34.710938 -46.15625 36.734375 -44.9375 C 38.765625 -43.726562 40.382812 -42.109375 41.59375 -40.078125 C 42.8125 -38.046875 43.421875 -35.820312 43.421875 -33.40625 Z M 30.0625 -26.34375 L 30.0625 -37.03125 L 16.703125 -37.03125 L 16.703125 -28.0625 Z M 30.0625 -26.34375 "/></g></g></g><g fill="#fb4d0e" fill-opacity="1"><g transform="translate(216.929091, 63.640584)"><g><path d="M 24.046875 0 L 1.34375 0 L 1.34375 -1.640625 L 6.015625 -1.640625 L 6.015625 -45.046875 L 1.34375 -45.046875 L 1.34375 -46.765625 L 16.703125 -46.765625 L 17.375 -44.390625 L 29.6875 -46.765625 L 31.03125 -46.765625 C 33.5 -46.765625 35.734375 -46.15625 37.734375 -44.9375 C 39.742188 -43.726562 41.351562 -42.109375 42.5625 -40.078125 C 43.78125 -38.046875 44.390625 -35.820312 44.390625 -33.40625 L 44.390625 -1.640625 L 49.0625 -1.640625 L 49.0625 0 L 31.03125 0 L 31.03125 -37.03125 L 19.375 -35.40625 L 19.375 -1.640625 L 24.046875 -1.640625 Z M 24.046875 0 "/></g></g></g></g></g></svg>